<svg xmlns="http://www.w3.org/2000/svg" version="1.1" xmlns:xlink="http://www.w3.org/1999/xlink" xmlns:svgjs="http://svgjs.dev/svgjs" viewBox="0 0 11.607117970507742 11.596230132095501"><g transform="matrix(1,0,0,1,3.508071237678494,2.878928579549896)"><g><path d=" M -1.4598061840044418 0.5166300787225857 L -1.4096147307098705 0.7358350467688844 L -1.2549921337290546 0.8355739684740452 L -1.2826371609408111 0.8784313187241626 L -1.8708753016286979 0.49898976875887724 L -1.8432302744169413 0.45613241850875985 L -1.4650771839747285 0.700059129200729 L -1.6063503353671846 0.08890375067932199 L -1.572742655227402 0.0368026582183949 L -1.4724687532996306 0.46800231567672324 L -0.973121268040557 0.3985970639630436 L -1.0067289481803394 0.4506981564239707 L -1.4598061840044418 0.5166300787225857 Z M -1.3797538297233638 -0.19419542077860874 L -1.3454693628115963 -0.23195221259910026 L -0.8612940324076466 0.2076956572106214 L -0.5903795193597601 -0.09065703109639978 L -0.5563243737961794 -0.05973378643088417 L -0.8615233537558333 0.27637569369662845 L -1.3797538297233638 -0.19419542077860874 Z M -0.8904323838007101 -0.6903288848841174 L -0.8520501316764976 -0.7239116590678172 L -0.3911100938610086 -0.1970964338335272 L -0.4294923459852211 -0.16351365964982728 L -0.8904323838007101 -0.6903288848841174 Z M 0.3763750778705863 -0.7342078415758952 L 0.057883054108249066 -1.2415192161771067 L 0.07780018475294015 -0.657149206759373 L 0.05660478970149896 -0.6438919359763897 L -0.45907181928633495 -0.91581588663688 L -0.14248819298869397 -0.40966985280846435 L -0.18487898309157635 -0.3831553112424978 L -0.5560825650151084 -0.9766263726828511 L -0.5196264855266297 -0.9994288784295824 L 0.03262720026117244 -0.7067415597193458 L 0.011106206561457721 -1.3313909388354839 L 0.04671447024787895 -1.3536631537508959 L 0.4187658679734687 -0.7607223831418619 L 0.3763750778705863 -0.7342078415758952 Z M 1.0123806499088404 -1.2045302308410526 L 0.6314850502624582 -1.0639793782288294 L 0.6161865517306353 -0.8483501688376345 L 0.5645873941430711 -0.8293100287054367 L 0.6243479514277483 -1.5974979456847556 L 0.6721944430089442 -1.6151533483527936 L 1.2166131127495632 -1.069908163103208 L 1.165013955161999 -1.0508680229710101 L 1.0123806499088404 -1.2045302308410526 Z M 0.9796695586388728 -1.2382938874547524 L 0.6671884384657878 -1.5536152307465985 L 0.6353624525545815 -1.1112442251180878 L 0.9796695586388728 -1.2382938874547524 Z M 1.345380909523547 -1.7557724712369183 L 1.098197796754726 -1.7067366806150028 L 1.0892468191015192 -1.7518574075489939 L 1.6336381984138035 -1.8598528987996414 L 1.6425891760670104 -1.8147321718656504 L 1.3954060632981893 -1.7656963812437345 L 1.5226656151503035 -1.1241973504865566 L 1.4726404613756614 -1.1142734404797403 L 1.345380909523547 -1.7557724712369183 Z M 2.409082232232102 -1.2511577170751957 L 2.4108431185303436 -1.2051914329155569 L 1.9281971348541358 -1.1867021267840205 L 1.9014010390113298 -1.8861890596480901 L 2.369058016983308 -1.9041041637258518 L 2.370818903281549 -1.858137879566213 L 1.9541245447039537 -1.8421750624712843 L 1.9646898624934028 -1.5663773575134512 L 2.337416471005257 -1.580655848583975 L 2.33913907716658 -1.5356888314712847 L 1.966412468654726 -1.521410340400761 L 1.9773988679502765 -1.2346206979264924 L 2.409082232232102 -1.2511577170751957 Z M 2.957243828419436 -1.1690186499558557 Q 2.8941998251343617 -1.2084895715284714 2.864082098259474 -1.257253518537401 L 2.894012646567637 -1.2900736690241486 Q 2.922749914985543 -1.244640537898535 2.979314453720156 -1.208488733548815 Q 3.0358789924547698 -1.172336929199095 3.103569927447829 -1.1589601837142833 Q 3.201672731785596 -1.1395735960551363 3.259072065308333 -1.1669655019973226 Q 3.3164713988310703 -1.194357407939509 3.3282972173031498 -1.254200118585547 Q 3.337408913502949 -1.3003084366242974 3.3163494008763132 -1.333011600506842 Q 3.2952898882496773 -1.3657147643893865 3.258956754663443 -1.3881848201037104 Q 3.222623621077208 -1.4106548758180342 3.15901556815299 -1.4395342041202972 Q 3.087159860468147 -1.4731014094420163 3.0450316422297323 -1.4997746774843177 Q 3.002903423991317 -1.5264479455266193 2.978289982953723 -1.5695371381425047 Q 2.953676541916129 -1.6126263307583901 2.9658900921413918 -1.6744310974911836 Q 2.975777251847557 -1.7244635277034446 3.0105043087738914 -1.7609228408790258 Q 3.045231365700226 -1.797382154054607 3.1045250690224737 -1.8111482989882222 Q 3.163818772344721 -1.8249144439218372 3.245244099945068 -1.808823576164745 Q 3.3021437264609723 -1.7975793553224397 3.3537855769880673 -1.7700453894958967 Q 3.4054274275151615 -1.742511423669354 3.4400274668724933 -1.706113109471151 L 3.413439433108067 -1.6695744113479047 Q 3.377858365707358 -1.7061665914226989 3.3312244376656577 -1.7306722388412332 Q 3.2845905096239574 -1.7551778862597676 3.236520135498451 -1.7646773142127499 Q 3.1413604152908174 -1.7834823042421226 3.0847482439348664 -1.7549155043799671 Q 3.0281360725789157 -1.7263487045178116 3.016116388230244 -1.6655249658283962 Q 3.007004692030445 -1.6194166477896457 3.028064204657081 -1.586713483907101 Q 3.0491237172837167 -1.5540103200245565 3.0854568508699516 -1.5315402643102325 Q 3.1217899844561865 -1.5090702085959087 3.1861851995471904 -1.4790159863736767 Q 3.2580409072320333 -1.4454487810519576 3.2996786114487593 -1.4188724459479518 Q 3.3413163156654857 -1.392296110843946 3.3661236225796713 -1.3501879462714381 Q 3.390930929493857 -1.3080797816989302 3.3789112451451855 -1.2472560430095148 Q 3.3690240854390208 -1.1972236127972535 3.3339034474292926 -1.161351746581657 Q 3.298782809419565 -1.1254798803660602 3.238017564032251 -1.1120045342473324 Q 3.177252318644937 -1.0985291881286046 3.09582699104459 -1.114620055885697 Q 3.02028783170451 -1.1295477283832402 2.957243828419436 -1.1690186499558557 Z M 4.329768420984395 -1.4572429822747552 L 4.072814396877488 -0.8061096399436571 L 4.025374681936222 -0.8248305759857318 L 4.1476113819756515 -1.1345840088375256 L 3.71228223310286 -1.306376127811858 L 3.5900455330634315 -0.9966226949600643 L 3.5426058181221656 -1.0153436310021389 L 3.799559842229073 -1.666476973333237 L 3.846999557170339 -1.6477560372911622 L 3.728800706081161 -1.3482346998188572 L 4.164129854953953 -1.1764425808445247 L 4.28232870604313 -1.4759639183168298 L 4.329768420984395 -1.4572429822747552 Z M 4.660794938418634 -1.2779919961880952 L 4.705092692072857 -1.2527193029958432 L 4.358212589434102 -0.6447109195064976 L 4.313914835779879 -0.6699836126987497 L 4.660794938418634 -1.2779919961880952 Z M 5.009454382760519 -0.24996754523161602 L 4.98185718802662 -0.2131654414490976 L 4.595435098310176 -0.5029359861550371 L 5.0153924094782045 -1.0629680002368393 L 5.389813813178609 -0.7821965407702147 L 5.362216618444711 -0.7453944369876963 L 5.028597547198837 -0.9955690066406503 L 4.863014378795443 -0.7747563839455398 L 5.161431437727603 -0.5509791309945761 L 5.134434182009659 -0.5149770729464602 L 4.836017123077498 -0.7387543258974238 L 4.663834625498606 -0.5091412001238849 L 5.009454382760519 -0.24996754523161602 Z M 5.644354824901347 -0.5482697704205074 L 5.679753372253693 -0.5115554292805141 L 5.208945938811425 -0.05762111617397517 L 5.488663871811326 0.232494167736168 L 5.455548975881136 0.26442226926965545 L 5.1404324955288905 -0.062407355780481025 L 5.644354824901347 -0.5482697704205074 Z M 6.141545818802231 0.003802832718769744 L 6.295161350686848 0.2343050417403027 Q 6.355609339767797 0.3250080770592452 6.365024188281447 0.42027932470230395 Q 6.374439036795097 0.5155505723453626 6.334348799904719 0.5987492676841317 Q 6.29425856301434 0.6819479630229008 6.210212631205045 0.7379594024465336 Q 6.12616669939575 0.7939708418701662 6.033947004031891 0.7989485709705811 Q 5.941727308668033 0.8039263000709961 5.857420045670851 0.7585662360727585 Q 5.773112782673671 0.713206172074521 5.712664793592721 0.6225031367555784 L 5.559049261708105 0.3920009277340455 L 6.141545818802231 0.003802832718769744 Z M 5.748724863944533 0.5936644244711795 Q 5.802518028539508 0.6743818045256513 5.875593423509871 0.7146091167640475 Q 5.948668818480233 0.7548364290024436 6.028269084537528 0.7498567057563164 Q 6.107869350594822 0.7448769825101893 6.181929627139646 0.6955203675725329 Q 6.255989903684471 0.6461637526348764 6.291224673168591 0.5746129942922776 Q 6.32645944265271 0.503062235949679 6.317458668962701 0.4201331332596026 Q 6.308457895272691 0.3372040305695262 6.254664730677717 0.25648665051505437 L 6.131550477687159 0.07175202812234568 L 5.6256106109539745 0.4089298020784709 L 5.748724863944533 0.5936644244711795 Z" fill="#262626" fill-rule="nonzero"></path></g><g><path d=" M -2.4442049091089366 2.157969931474701 Q -2.410345685357545 2.090214466994312 -2.364733987064493 2.0567245733124326 L -2.3118685200488795 2.0927140495134156 Q -2.354377680227223 2.1255921775156597 -2.3856718420606184 2.1851062551372213 Q -2.416966003894014 2.244620332758783 -2.425456519101891 2.311080178917985 Q -2.4373685852144344 2.404322351141343 -2.409102757188729 2.455315418964541 Q -2.380836929163024 2.5063084867877388 -2.326280339032335 2.5132783127046525 Q -2.284618942932537 2.518600725223023 -2.2565890281298366 2.4964744088519377 Q -2.2285591133271367 2.4743480924808523 -2.2104791583145893 2.439357161845268 Q -2.192399203302042 2.404366231209684 -2.168164404163727 2.3409259087741416 Q -2.138314439617364 2.2650972887380307 -2.1140075535171334 2.2208205986165863 Q -2.0897006674169027 2.176543908495142 -2.0477617657226705 2.1481295015035906 Q -2.0058228640284383 2.1197150945120393 -1.9413468938739884 2.1279521615047554 Q -1.8887741797480526 2.134668539206509 -1.849173151656937 2.167955301952782 Q -1.8095721235658215 2.201242064699055 -1.791131733743696 2.2620692956339585 Q -1.7726913439215708 2.322896526568862 -1.7835896171734726 2.4082031947732108 Q -1.7911930636282878 2.46771947491578 -1.8148466768533587 2.5226649622773345 Q -1.8385002900784295 2.5776104496388887 -1.8725889046657085 2.61559684661886 L -1.927945144116395 2.5833216742122214 Q -1.8936030813139557 2.543351401227498 -1.872883774900489 2.495592000668604 Q -1.8521644684870222 2.4478326001097104 -1.84608171132317 2.400219575995655 Q -1.8344230934257868 2.308961279777049 -1.8637442215076585 2.258337456847459 Q -1.8930653495895302 2.2077136339178693 -1.9486138777225945 2.200617083893375 Q -1.9902752738223928 2.1952946713750046 -2.018801157626281 2.2173576256923 Q -2.0473270414301696 2.2394205800095954 -2.0655970826040875 2.2758994176487435 Q -2.083867123778005 2.312378255287892 -2.10797519880874 2.374826639721058 Q -2.136579777137566 2.4487981078599965 -2.1609500252915868 2.493570766982629 Q -2.1853202734456074 2.5383434261052615 -2.2266998440848615 2.566325226149415 Q -2.2680794147241157 2.594307026193569 -2.331563446876189 2.5861966833084327 Q -2.384136161002125 2.5794803056066793 -2.4236738270394507 2.545697573859218 Q -2.463211493076776 2.5119148421117568 -2.481029189790133 2.4501590352282676 Q -2.4988468865034896 2.388403228344778 -2.487948613251588 2.303096560140429 Q -2.4780641328603283 2.2257253959550893 -2.4442049091089366 2.157969931474701 Z M -1.800931426411733 3.4147479698223386 L -2.500041729773393 3.4500294626134416 L -2.503721085450179 3.3771222452628686 L -2.1811316168990134 3.3608423564464025 L -2.2032077509597316 2.923399052342964 L -2.5257972195108978 2.93967894115943 L -2.5295269773202427 2.865772994804055 L -1.8304166739585832 2.830491502012952 L -1.826686916149238 2.9043974483683273 L -2.1382903656475776 2.9201229137266473 L -2.1162142315868593 3.357566217830086 L -1.8046107820885195 3.3418407524717657 L -1.800931426411733 3.4147479698223386 Z M -1.753876661534909 3.6560075677005837 L -1.73991160989383 3.728677900936795 L -2.42733368104718 3.86077974078484 L -2.441298732688259 3.7881094075486286 L -1.753876661534909 3.6560075677005837 Z M -2.1434674907892526 4.634859397249381 L -2.2043820675904064 4.654491369466567 L -2.356223102707706 4.183355189520146 L -1.6899699189450899 3.968630493394671 L -1.5427301273161929 4.425489819403323 L -1.6036447041173463 4.445121791620508 L -1.7281850278701216 4.058694945038191 L -1.9651808032371094 4.135075586945681 L -1.8541374603836498 4.479623661977206 L -1.9141002469222852 4.498948884628499 L -2.025143589775745 4.154400809596974 L -2.272609058030431 4.234155696729293 L -2.1434674907892526 4.634859397249381 Z M -1.4584316596241633 4.614185185533021 L -1.425010927829398 4.680208323040279 L -1.9924530285674584 4.967445963870963 L -1.8154134763573513 5.317190151747252 L -1.8725145682555209 5.346094568434617 L -2.082974852260393 4.930327243051069 L -1.4584316596241633 4.614185185533021 Z M -1.1742974798582346 5.150613673079277 L -1.0030693821471655 5.3784424213843325 Q -0.9363805440912754 5.467175723355775 -0.9208857756496406 5.561860263545503 Q -0.9053910072080059 5.65654480373523 -0.9407056208846083 5.741880189483888 Q -0.9760202345612108 5.827215575232547 -1.057558944480915 5.888497210202824 Q -1.1390976544006193 5.9497788451731015 -1.2308875003047324 5.959970713936935 Q -1.3226773462088453 5.970162582700768 -1.4093186360510062 5.928949273024322 Q -1.495959925893167 5.887735963347875 -1.5626487639490572 5.7990026613764325 L -1.7338768616601266 5.571173913071377 L -1.1742974798582346 5.150613673079277 Z M -1.5138904218414106 5.757353842966858 Q -1.4586167902995917 5.830898561717964 -1.3879834988778432 5.8641278882674195 Q -1.3173502074560948 5.897357214816875 -1.2429585513904922 5.888982759143992 Q -1.1685668953248896 5.880608303471107 -1.1014173695086624 5.8301410746720554 Q -1.0342678436924355 5.7796738458730035 -1.005537013683118 5.710545057318772 Q -0.9768061836738007 5.64141626876454 -0.9890833395647805 5.564328517187336 Q -1.0013604954557602 5.487240765610133 -1.056634126997579 5.413696046859028 L -1.1809997979666713 5.24822042966904 L -1.638256092810503 5.59187822577687 L -1.5138904218414106 5.757353842966858 Z M -0.6403287565044825 5.801690537235759 L -0.5879967780077335 5.854010361648841 L -1.0829140359693272 6.349042590672142 L -1.135246014466076 6.296722766259059 L -0.6403287565044825 5.801690537235759 Z M 0.05249484811342209 6.380344419839831 L -0.3688194286483054 6.939356298243808 L -0.41753332090922346 6.902641768411715 L -0.43503165816797806 6.178198666302806 L -0.7768980998832085 6.631796876207747 L -0.835993641314486 6.58725793837865 L -0.41467936455275844 6.028246059974673 L -0.3659654722918405 6.064960589806766 L -0.34766854663536584 6.790005569453906 L -0.0058021049201355535 6.336407359548965 L 0.05249484811342209 6.380344419839831 Z M 0.5561948593730942 7.0363797004459405 L 0.6201525899843523 7.067208399657191 L 0.5042193126688063 7.30772549927981 Q 0.44140856807675843 7.3251843183633705 0.37106732817798305 7.3168111487423175 Q 0.3007260882792077 7.308437979121264 0.2340659183463471 7.27630665881658 Q 0.13948054209026112 7.230714920546421 0.08378576451803321 7.152804126999057 Q 0.028090986945805307 7.074893333451692 0.02023983083843195 6.980635127719896 Q 0.012388674731058535 6.8863769219880995 0.056243584876639635 6.795394798160817 Q 0.10009849502222073 6.704412674333534 0.178725397206126 6.6518383435915975 Q 0.25735229939003124 6.59926401284966 0.3529941238275409 6.594300000534549 Q 0.4486359482650506 6.589335988219438 0.5441221376283374 6.635361933520741 Q 0.6161871862044029 6.670098496012291 0.6654693850926765 6.722161101332584 Q 0.71475158398095 6.774223706652878 0.7344786353549693 6.839237885445559 L 0.6726335019599464 6.861602578051357 Q 0.6334709906161164 6.751696719675907 0.5181669128944117 6.696118219689429 Q 0.44159779878234207 6.659210622042157 0.3636093372711722 6.663247931928799 Q 0.2856208757600023 6.66728524181544 0.2216143970080699 6.710255239229665 Q 0.15760791825613757 6.753225236643889 0.12200294170229942 6.827091911434356 Q 0.08639796514846132 6.900958586224823 0.09287201227376501 6.9773463255147075 Q 0.09934605939906871 7.053734064804591 0.14410148350523844 7.11749104099604 Q 0.18885690761140816 7.181248017187488 0.2654260217234778 7.218155614834759 Q 0.36271383730116624 7.265049974198351 0.45372200002302354 7.248971593745334 L 0.5561948593730942 7.0363797004459405 Z M 1.3934778370419978 7.401913679205106 L 1.3429887376285374 7.63858824657646 L 1.2715951697851124 7.62335806369554 L 1.3220842691985726 7.386683496324186 L 1.1437996769150418 6.880345067845471 L 1.2210612092387483 6.896827046579617 L 1.3737871600636873 7.331250554167107 L 1.6904983676612693 6.996970714837719 L 1.7628699295847412 7.012409530360843 L 1.3934778370419978 7.401913679205106 Z M 1.9631342278320292 7.685339691754375 Q 1.8801038607666354 7.636263647241945 1.8351167347239548 7.553841511317062 Q 1.7901296086812744 7.471419375392178 1.7932349441253708 7.370467124838862 Q 1.7963402795694672 7.269514874285544 1.8463082406808964 7.1900135984318405 Q 1.8962762017923256 7.1105123225781375 1.982165937137927 7.066632334402859 Q 2.0680556724835286 7.022752346227581 2.1720065047364487 7.025949919358136 Q 2.275957336989369 7.029147492488691 2.358003549769305 7.077693027489033 Q 2.4400497625492403 7.126238562489376 2.4855212792607784 7.209175834978604 Q 2.5309927959723164 7.292113107467831 2.52788746052822 7.393065358021147 Q 2.5247821250841236 7.494017608574464 2.474299027408351 7.574003275097025 Q 2.423815929732578 7.653988941619587 2.3389410945679208 7.69739991207375 Q 2.254066259403263 7.740810882527914 2.150115427150343 7.737613309397359 Q 2.046164594897423 7.734415736266804 1.9631342278320292 7.685339691754375 Z M 2.3032267123133283 7.6387741250839545 Q 2.3713480080185345 7.60335182883648 2.4113746449300044 7.5380516118570755 Q 2.4514012818414743 7.472751394877671 2.453922445271335 7.3907901617551754 Q 2.456443608701195 7.308828928632681 2.420506175889377 7.241192023596332 Q 2.384568743077559 7.1735551185599835 2.3187533895338106 7.134012872317371 Q 2.252938035990062 7.0944706260747585 2.169977275634366 7.091918716749412 Q 2.08701651527867 7.089366807424065 2.0183954559568633 7.124773730723797 Q 1.9497743966350563 7.160180654023528 1.909247996106986 7.22546549805519 Q 1.8687215955789156 7.290750342086852 1.866200432149055 7.372711575209347 Q 1.8636792687191945 7.454672808331842 1.9001164651476132 7.522325086315933 Q 1.936553661576032 7.589977364300025 2.002868778736381 7.62953498349038 Q 2.06918389589673 7.669092602680736 2.152144656252426 7.6716445120060826 Q 2.235105416608122 7.674196421331429 2.3032267123133283 7.6387741250839545 Z M 2.898782726292514 7.62847068805282 Q 2.810591401927175 7.564577884806385 2.785175089295527 7.417761635527873 L 2.7167727982533068 7.022638709617246 L 2.7896882509151184 7.010015842941125 L 2.8575788041191177 7.4021827369870845 Q 2.8783894762067757 7.522394699483584 2.942818150490112 7.572133476409559 Q 3.0072468247734476 7.621872253335533 3.10972259608194 7.604132008277201 Q 3.213183711345321 7.586221183939463 3.2571428720998132 7.517718686278715 Q 3.3011020328543053 7.449216188617967 3.280291360766647 7.329004226121467 L 3.2124008075626476 6.936837332075507 L 3.2833455723146807 6.924555623958201 L 3.351747863356901 7.319678549868828 Q 3.377164175988549 7.466494799147341 3.316075891188152 7.556230363223941 Q 3.254987606387755 7.645965927300542 3.120980828522804 7.669164709299897 Q 2.986974050657853 7.692363491299254 2.898782726292514 7.62847068805282 Z M 4.208957400967592 7.344761963363772 L 3.980032376784752 7.190430070020608 Q 3.955813586702615 7.202736580775382 3.928667273599663 7.21293842790796 L 3.752684278311559 7.279074540353638 L 3.830781177050604 7.4868842475555475 L 3.7615112746499677 7.512916547135229 L 3.5152597921394655 6.857660713615695 L 3.7605126898282055 6.765492301590335 Q 3.885947377959088 6.718352732081182 3.9796038611421687 6.751525961616114 Q 4.0732603443252495 6.784699191151045 4.112660581526931 6.889540124514171 Q 4.141507183763875 6.966298665012173 4.1225358861507075 7.033786366609372 Q 4.10356458853754 7.101274068206572 4.0402811426543375 7.151763725336997 L 4.2847798617034245 7.3162671489589854 L 4.208957400967592 7.344761963363772 Z M 4.037286922555266 7.055675044182563 Q 4.072589069195396 6.993267044354026 4.0433906791262935 6.9155724240938525 Q 4.013488713392876 6.8360056443093375 3.945997980110301 6.81276234589925 Q 3.878507246827726 6.789519047489162 3.781154951561967 6.82610498203358 L 3.607044115798205 6.891537518814942 L 3.7305216448856138 7.22010151533688 L 3.9046324806493757 7.154668978555518 Q 4.001984775915135 7.118083044011101 4.037286922555266 7.055675044182563 Z M 4.538892061909043 6.449284881834104 L 4.693213595139098 6.6769026851393924 L 4.992841394399151 6.473759430487466 L 5.0287562239508725 6.526732301074879 L 4.72912842469082 6.729875555726805 L 4.895795680579279 6.9757027832965175 L 4.834545798962583 7.017229304965696 L 4.441727350740625 6.437838532915869 L 4.839023880146221 6.168477311277956 L 4.874938709697942 6.221450181865369 L 4.538892061909043 6.449284881834104 Z M 5.459577406311866 6.46168631658252 Q 5.350713966586146 6.45872802466245 5.246859733973207 6.351885624987145 L 4.967359416672614 6.06434332787441 L 5.0204220849677315 6.012764715704226 L 5.297831377450615 6.2981558235617525 Q 5.382866386704162 6.3856375199401905 5.464125352737169 6.390325850052987 Q 5.545384318770177 6.395014180165783 5.61995887961737 6.322525319818498 Q 5.695250503549632 6.249339451198641 5.6928684768742315 6.1679802111031385 Q 5.690486450198832 6.086620971007635 5.605451440945285 5.999139274629198 L 5.328042148462402 5.713748166771671 L 5.379670690587382 5.663563571146627 L 5.659171007887975 5.951105868259361 Q 5.763025240500913 6.057948267934666 5.763253622838657 6.1665033131491 Q 5.7634820051763995 6.275058358363534 5.6659614256069935 6.369851483433062 Q 5.568440846037587 6.46464460850259 5.459577406311866 6.46168631658252 Z M 5.652582742276361 5.413759321870855 L 5.507049082769226 5.612092259000474 L 5.4554502698574545 5.574229843518943 L 5.7902960067722455 5.117902841830471 L 5.841894819684017 5.155765257312002 L 5.696361160176881 5.354098194441621 L 6.209124363487602 5.730355948289336 L 6.165345945587082 5.790017075718571 L 5.652582742276361 5.413759321870855 Z M 6.446208407398716 5.232266794695396 Q 6.342416839823793 5.265241186279472 6.2092239554516295 5.198453046968487 L 5.850765253215139 5.018707786138249 L 5.883935201597776 4.952558299939993 L 6.239712167907311 5.130958833133097 Q 6.348769428936867 5.185644423709878 6.427057487490115 5.163373817791691 Q 6.505345546043364 5.141103211873505 6.55196277079734 5.048136366405687 Q 6.599028238097029 4.954275608962217 6.570046859572026 4.878215897558672 Q 6.541065481047022 4.802156186155127 6.432008220017466 4.7474705955783465 L 6.07623125370793 4.569070062385243 L 6.108504716999145 4.504708400138291 L 6.466963419235637 4.684453660968529 Q 6.6001563036077995 4.751241800279516 6.636039125507459 4.853695073006731 Q 6.671921947407118 4.956148345733948 6.610960961190379 5.077720374422634 Q 6.54999997497364 5.199292403111319 6.446208407398716 5.232266794695396 Z M 6.996455401154994 4.0098607392102235 L 6.736301398947208 4.10229934118619 Q 6.731810401215559 4.129091708371161 6.723887112368711 4.156988329920184 L 6.672522343292597 4.33783539375523 L 6.886075791012705 4.398489535962132 L 6.8658577436104045 4.4696740185355015 L 6.192491016565018 4.27842221878401 L 6.264073833043433 4.0263906723755944 Q 6.300684891853004 3.8974890417697634 6.383014330870173 3.8418665330964004 Q 6.465343769887342 3.7862440244230378 6.573082446214603 3.8168443123832763 Q 6.651962548525635 3.8392480946398795 6.694974363366174 3.894605874437512 Q 6.737986178206713 3.9499636542351446 6.740997291914241 4.030864415629833 L 7.018585966554809 3.9319425893664004 L 6.996455401154994 4.0098607392102235 Z M 6.661929339958764 3.976181155178701 Q 6.632706453590542 3.910705794070037 6.552864398812303 3.8880287949566457 Q 6.471098439099649 3.864805362129679 6.412302674718368 3.905281380842255 Q 6.353506910337086 3.9457573995548314 6.32509235723115 4.045800456144431 L 6.274274021868611 4.224723615045063 L 6.611919337858512 4.320622731777596 L 6.662737673221051 4.141699572876965 Q 6.691152226326986 4.0416565162873646 6.661929339958764 3.976181155178701 Z M 7.05546134626575 3.133025948359993 L 7.119125950719435 3.139569505477942 L 7.0685156261353015 3.6319754305494105 L 6.372184014923124 3.560405274571848 L 6.421260693307738 3.082920741169212 L 6.484925297761423 3.0894642982871607 L 6.443414607294437 3.493336632790224 L 6.691109708997054 3.5187951597022424 L 6.728121703945451 3.158692240761088 L 6.790791548954546 3.165133554799068 L 6.75377955400615 3.5252364737402226 L 7.012417009599245 3.5518196745318886 L 7.05546134626575 3.133025948359993 Z M 7.105956328482709 2.905523515599144 Q 7.09010853929812 2.9211791081449663 7.067109637207411 2.921403836029211 Q 7.044110735116701 2.921628563913456 7.0284600279596665 2.906280750861273 Q 7.012809320802632 2.89093293780909 7.012594363695963 2.868933987983194 Q 7.012379406589294 2.846935038157298 7.027722334252689 2.830784354867857 Q 7.043065261916084 2.8146336715784157 7.066064164006794 2.814408943694171 Q 7.089063066097503 2.8141842158099264 7.105218634775732 2.830027119605728 Q 7.1213742034539615 2.8458700234015297 7.12158916056063 2.867868973227426 Q 7.121804117667299 2.8898679230533215 7.105956328482709 2.905523515599144 Z M 7.098046223061128 2.6391681790021058 Q 7.083090114939891 2.6556777165445653 7.060138985625025 2.6571762702380743 Q 7.037187856310161 2.658674823931584 7.0207108960219085 2.6442176534041484 Q 7.004233935733655 2.629760482876713 7.00280053654856 2.6078072287494503 Q 7.001367137363464 2.585853974622188 7.015791730636693 2.568878076740134 Q 7.030216323909921 2.55190217885808 7.053167453224787 2.5504036251645705 Q 7.076118582539652 2.5489050714710615 7.093127057675912 2.5638286023380914 Q 7.110135532812173 2.5787521332051218 7.111568931997269 2.600705387332384 Q 7.113002331182365 2.6226586414596467 7.098046223061128 2.6391681790021058 Z M 7.075391812581341 2.373660151275414 Q 7.061373325780374 2.390972921932104 7.038540467580142 2.39374069836962 Q 7.015707609379909 2.3965084748071366 6.998455007776209 2.382986354488784 Q 6.981202406172509 2.3694642341704317 6.978554967840971 2.3476241089354266 Q 6.975907529509434 2.3257839837004215 6.989369480774797 2.308035015614107 Q 7.00283143204016 2.2902860475277933 7.0256642902403925 2.2875182710902773 Q 7.048497148440625 2.284750494652761 7.066306285579929 2.2987088124007373 Q 7.084115422719232 2.3126671301487143 7.08676286105077 2.3345072553837194 Q 7.0894102993823065 2.3563473806187245 7.075391812581341 2.373660151275414 Z M 7.038062683959234 2.109814985964742 Q 7.025024878670402 2.1278778105846765 7.0023804266335326 2.1319063080651155 Q 6.979735974596663 2.135934805545554 6.961760726008912 2.1233892709531763 Q 6.9437854774211605 2.110843736360799 6.939932132005088 2.0891838257168365 Q 6.936078786589016 2.067523915072874 6.948536745149211 2.0490563957886687 Q 6.960994703709405 2.030588876504464 6.983639155746275 2.026560379024025 Q 7.0062836077831445 2.0225318815435864 7.024838703099533 2.0354821108002343 Q 7.043393798415922 2.048432340056882 7.047247143831993 2.0700922507008443 Q 7.051100489248065 2.091752161344807 7.038062683959234 2.109814985964742 Z" fill="#e8a941" fill-rule="nonzero"></path></g><g clip-path="url(&quot;#SvgjsClipPath1022&quot;)"><path d=" M 3.102438762276478 1.9493136007070497 C 3.1293069734788728 2.1372666892571326 3.0040930239343804 3.299565603494046 2.324504536073818 3.6661580893267156 C 2.324504536073818 3.6661580893267156 1.5289069488029166 3.004357352401071 1.671877551815658 1.8867610465014752 C 1.671877551815658 1.8867610465014752 1.9132716368371698 1.5200752682687972 2.5305563502255137 1.4128045569925707 C 2.5305563502255137 1.4128045569925707 2.092299752453124 1.3412803836528633 1.7165801601529747 1.627594759278379 C 1.7165801601529747 1.627594759278379 1.788337564492703 1.2518129720448914 2.3160149276730615 0.7690869969352061 C 2.3160149276730615 0.7690869969352061 0.9569467930852786 1.3056115893830196 1.6004777683426281 3.3083972840281666 C 1.6004777683426281 3.3083972840281666 0.6706635149264332 2.9955101231336165 0.5991393415867257 2.065773613384095 C 0.5991393415867257 2.065773613384095 0.3574809280985232 2.8702184299224505 1.4751549776647932 3.576659580252073 C 2.4144228609484983 4.175845568038803 2.3514504909428857 4.855340763499358 1.6541986420140835 5.830028661319552 L 3.36185382923293 5.830028661319552 C 3.0759126232074476 5.597559549232169 2.950636478729617 4.479885499665898 2.6288243449009383 4.050538326094304 C 2.8433968649200603 3.2815446215591066 4.104088163699076 3.2907339229599257 4.095163190764946 1.7883220157593696 C 4.095163190764946 1.7883220157593696 3.961024268286326 2.7810619929811726 3.057891641272508 3.0759126232074485 C 3.057891641272508 3.0759126232074485 3.2903763020932266 2.351714819409577 3.1024387622764786 1.9493136007070497 Z" fill="#181818" transform="matrix(1,0,0,1,0,0)" fill-rule="evenodd"></path><path d=" M 2.2531203013341234 0.6349480744565846 C 2.306841175005578 0.5276618144470245 2.3514504909428866 0.42037555443746283 2.342541066742092 0.21480575101914276 C 2.3960753556135295 0.42040665190413246 2.324504536073818 0.6349480744565846 2.235348099132539 0.6975161773954937 C 2.5574245614279083 0.5633772549168731 2.5842772238969682 0.28628327815884713 2.3336938374746365 0 C 2.0477526314491548 0.18795308855008394 2.0297316495142157 0.4830524985097151 2.1995704637293505 0.6706635149264341 C 2.2084021442634714 0.6798528163272527 2.24444410813335 0.6529846051248587 2.2531203013341226 0.6349014282565798 Z" fill="#81ab40" transform="matrix(1,0,0,1,0,0)" fill-rule="evenodd"></path><path d=" M 2.405264657014348 0.8674327352773028 C 2.476664440487378 0.8497538254757274 2.5574245614279083 0.840580072808244 2.6823741825057104 0.8762799645447581 C 2.5659141698286647 0.8139761900725396 2.4229435668159236 0.8228078706066597 2.3605154024770276 0.8674327352773028 C 2.503563749156442 0.6886223019280352 2.6823741825057104 0.7156304517304422 2.8256557601851453 0.9212313526154302 C 2.655723653570002 1.0730647336289614 2.4678016624865884 1.0373648418924464 2.378287604678611 0.8943009464796968 C 2.369455924144491 0.8854537172122415 2.39604425814686 0.8762799645447573 2.4052335595476797 0.867432735277302 Z" fill="#81ab40" transform="matrix(1,0,0,1,0,0)" fill-rule="evenodd"></path><path d=" M 0.6080021195875162 1.8598150916324068 C 0.6437642062573703 1.7437282485553953 0.6618162856589788 1.627594759278379 0.6080021195875162 1.4219783096600551 C 0.7064411503296226 1.618514299010903 0.6795262929272237 1.8421517305641657 0.6080021195875162 1.9224764869713238 C 0.9031326270138169 1.7260337900204847 0.8670906631439386 1.4397505118616385 0.5542812459160624 1.2072347535742507 C 0.3040399316270953 1.4578181399965813 0.34892912476442894 1.7526843189561923 0.5634705473168812 1.9048442233697525 C 0.5811494571184566 1.9136759039038724 0.5992326339867353 1.8778827197673496 0.6080021195875162 1.8598617378324098 Z" fill="#81ab40" transform="matrix(1,0,0,1,0,0)" fill-rule="evenodd"></path><path d=" M 0.45585776390729044 2.1103984780547385 C 0.3935539894350712 2.0297316495142166 0.3221386572287069 1.9673501313753237 0.16991655788180834 1.9136292577038692 C 0.33090814282948855 1.9316502396388089 0.47387874584223 2.0477526314491556 0.5007314083112897 2.137266689257133 C 0.49189972777716956 1.8509834110982866 0.2860189496921549 1.752637672756189 0.00006219493333924173 1.8509834110982866 C 0.05386081227146658 2.128077387856314 0.26832449115724516 2.226500869865085 0.4650937115081148 2.1550233427253818 C 0.4739409407755701 2.146098369791253 0.4650937115081148 2.119261256055528 0.45591995884063047 2.1103984780547385 Z" fill="#81ab40" transform="matrix(1,0,0,1,0,0)" fill-rule="evenodd"></path><path d=" M 1.6184987502775676 1.1180161216996343 C 1.6184987502775676 1.0104033382900444 1.6004777683426281 0.8943009464796977 1.4932070570664024 0.7333093615320166 C 1.6365197322125073 0.8762799645447573 1.6810668532164768 1.0818964141630814 1.6365197322125073 1.1803198961718526 C 1.8417630122307975 0.9120575999479467 1.7256917178871205 0.6706635149264341 1.3767470443893572 0.554545574382753 C 1.2337764413766157 0.8497538254757274 1.3590836833211155 1.0999951397646945 1.5915527954085 1.1714882156377324 C 1.6095737773434386 1.1803198961718526 1.6184987502775676 1.135726128967879 1.6184987502775676 1.1180161216996343 Z" fill="#81ab40" transform="matrix(1,0,0,1,0,0)" fill-rule="evenodd"></path><path d=" M 4.0593700066284235 1.6095737773434404 C 4.0593700066284235 1.4934713855330937 4.041364573426819 1.3770891165227221 3.9341716058172667 1.2160197879083683 C 4.077142208830007 1.3593480117878085 4.12176707350065 1.5738894343402607 4.086331510230826 1.672219623949023 C 4.283100730581695 1.3951411959243305 4.16664071790465 1.153716013436149 3.8180692140069192 1.0373648418924473 C 3.675020867327505 1.3324642518520784 3.7999549396719714 1.591894867541865 4.032517344159364 1.6633723946815686 C 4.050196253960938 1.672219623949024 4.0593700066284235 1.6276103080117144 4.0593700066284235 1.609573777343441 Z" fill="#81ab40" transform="matrix(1,0,0,1,0,0)" fill-rule="evenodd"></path><path d=" M 3.192030563751129 1.8421517305641666 C 3.192030563751129 1.752637672756189 3.210051545686068 1.6541986420140826 3.29931682376069 1.5292645696696168 C 3.183214431950343 1.6365508296791769 3.138496274879692 1.8151902269617637 3.1740251305495244 1.8958726042356202 C 3.0132045816685262 1.672219623949023 3.1116280636772973 1.4666031743306998 3.3975848184361137 1.3858741508568382 C 3.5136872102464607 1.6275325643450407 3.406758571103598 1.8331490139633648 3.210067094419403 1.8866988515681369 C 3.192046112484464 1.8958104093022827 3.183214431950343 1.859752896699069 3.192046112484464 1.8420895356308282 Z" fill="#81ab40" transform="matrix(1,0,0,1,0,0)" fill-rule="evenodd"></path><path d=" M 2.9955101231336156 1.9316502396388089 C 2.942146560068038 1.840836896321748 2.864761331147719 1.76650769257189 2.771872691580352 1.716844488619666 C 2.9149210382597674 1.7617336817569997 3.02211400586932 1.8867610465014744 3.0309456864034403 1.9673345826419886 C 3.067080942673327 1.716844488619666 2.9059960653256387 1.5918948675418643 2.6288243449009383 1.6453514127466273 C 2.637749317835067 1.8958726042356193 2.816497556250996 2.020899968980095 2.9955101231336156 1.985106784843572 C 3.013189032935191 1.976275104309452 3.0040930239343804 1.9493446981737186 2.9955101231336156 1.931650239638808 Z" fill="#81ab40" transform="matrix(1,0,0,1,0,0)" fill-rule="evenodd"></path><path d=" M 3.9519282592855145 1.7975113171601882 C 3.879460775658436 1.7637076930998996 3.7979933799139913 1.7542866275815756 3.7197234756648214 1.7706586546911294 C 3.82690089454104 1.7348965680212753 3.943267614818076 1.7617336817570004 3.9787964704879095 1.8064207413609827 C 3.898393970414078 1.6365819271458473 3.737402385466398 1.6365819271458473 3.5944317824536567 1.7883842106927088 C 3.7105341742640037 1.9317124345721481 3.871525759211683 1.9317124345721481 3.9699647899537887 1.824146297362563 C 3.9787964704879095 1.824146297362563 3.961024268286326 1.8064051926276483 3.9519282592855145 1.797557963360193 Z" fill="#81ab40" transform="matrix(1,0,0,1,0,0)" fill-rule="evenodd"></path><path d=" M 1.9132716368371707 2.557424561427909 C 1.949313600707049 2.450138301418348 1.9939540141110272 2.351714819409577 2.146176113457926 2.2265008698650846 C 1.976181811909443 2.3248621569405175 1.8686623208998612 2.5040146624231494 1.8779915609006927 2.611145435099363 C 1.7703787774911028 2.2980094944714575 1.9493757956403883 2.1014735051206097 2.306903369938916 2.092377496119799 C 2.3515126858762248 2.4233011876826227 2.163932766926175 2.619977115633483 1.9225231331713286 2.619977115633483 C 1.9045021512363898 2.619977115633483 1.9045021512363898 2.575445543362848 1.91333383177051 2.5574245614279087 Z" fill="#81ab40" transform="matrix(1,0,0,1,0,0)" fill-rule="evenodd"></path><path d=" M 1.0639531758948155 2.771888240313688 C 1.0597404091816904 2.6823782426739826 1.0782196206530916 2.59325549281929 1.11767404956627 2.512799696757265 C 1.0370072210257477 2.6199771156334832 1.0284243202249823 2.7541160381121044 1.0550282029606866 2.816746335984352 C 0.9120575999479459 2.6557702997700066 0.9655141451527098 2.4947631660889917 1.1803198961718526 2.3875080035461003 C 1.2966866164488888 2.5663184368953686 1.2337764413766157 2.745284357577984 1.090805838363875 2.8076658757168764 C 1.075392682391437 2.802346093349114 1.0647626024512036 2.788189067371966 1.0639531758948155 2.771903789047023 Z" fill="#81ab40" transform="matrix(1,0,0,1,0,0)" fill-rule="evenodd"></path><path d=" M 0.8670906631439386 3.272619648624978 C 0.7710302357662924 3.245640406370885 0.6698233298134094 3.2426028111874694 0.5723177765843372 3.263772419357523 C 0.7064411503296226 3.2100515456860688 0.8586010547431819 3.2280103326876692 0.9120575999479467 3.2815446215591066 C 0.7870302352034712 3.0759126232074485 0.5903232097859417 3.0939491538757222 0.4293471735715958 3.299565603494046 C 0.599170439053397 3.4694044177091814 0.7956908796709096 3.451725507907606 0.9031326270138178 3.3083972840281666 C 0.9031326270138178 3.299565603494046 0.885111645078879 3.2815446215591066 0.8670906631439395 3.2726351973583125 Z" fill="#81ab40" transform="matrix(1,0,0,1,0,0)" fill-rule="evenodd"></path><path d=" M 4.247058766711816 1.7883220157593696 C 4.291605887715786 1.7260337900204856 4.345404505053914 1.672219623949023 4.46150689686426 1.627594759278379 C 4.336572824519793 1.6541986420140842 4.229302113243567 1.7437282485553953 4.211265582575293 1.8151902269617637 C 4.202433902041173 1.591894867541865 4.363176707255497 1.502396358467222 4.595910147809572 1.5738894343402599 C 4.559852635206358 1.7975113171601882 4.390029369724557 1.8867610465014752 4.238289281111035 1.8332112088967032 C 4.229364308176907 1.8240996511625573 4.238289281111035 1.797449122226849 4.247120961645154 1.7883220157593696 Z" fill="#81ab40" transform="matrix(1,0,0,1,0,0)" fill-rule="evenodd"></path><path d=" M 3.6212844449227157 3.2011265727519405 C 3.6836659630616078 3.174258361549546 3.7554233674013364 3.1566105492146397 3.871525759211683 3.1834476629503645 C 3.7554233674013355 3.1384962748796923 3.6301161254568357 3.1566105492146397 3.5855845531862007 3.2011265727519405 C 3.6927775207957536 3.0312877585368048 3.8535047772767435 3.040119439070925 3.987985771888728 3.210051545686069 C 3.862694078677563 3.3532864771655 3.6927775207957536 3.34419046816469 3.6036055351211407 3.2280725276210083 C 3.5944317824536562 3.2191475546868795 3.6120951435218966 3.2011265727519405 3.6212844449227157 3.2011265727519405 Z" fill="#81ab40" transform="matrix(1,0,0,1,0,0)" fill-rule="evenodd"></path><path d=" M 3.701702493729882 2.423301187682623 C 3.6750053185941693 2.3697358013445164 3.6481526561251103 2.307183247138942 3.5498069177830125 2.244490754333355 C 3.6569843366592303 2.289131167737333 3.728617351132281 2.3962930378802163 3.728617351132281 2.4501072039516782 C 3.7735065442696145 2.2712967706024103 3.6658782121266897 2.163808377059498 3.451523374374254 2.1818293589944373 C 3.442334072973435 2.3696891551445116 3.5587007932504715 2.476959866420738 3.701764688663221 2.458938884485799 C 3.7105963691973414 2.458938884485799 3.7105963691973414 2.4412755234175583 3.701764688663221 2.423176797815945 Z" fill="#81ab40" transform="matrix(1,0,0,1,0,0)" fill-rule="evenodd"></path><path d=" M 2.736095056177164 2.941789249462162 C 2.727247826909709 2.861371200654996 2.7003329695073104 2.7810619929811726 2.6107878142326637 2.682622962239066 C 2.718074074242225 2.763041011046233 2.780797664514481 2.915185366726458 2.7626833901795336 2.9866628938661615 C 2.87021842992245 2.771888240313688 2.7718726915803527 2.611145435099363 2.5124420758905663 2.566256241962029 C 2.440917902550859 2.7899092222486273 2.54820416256042 2.959825780130436 2.727247826909709 2.9866628938661615 C 2.736095056177164 2.9866628938661615 2.7449267367112844 2.959825780130436 2.736095056177164 2.941789249462162 Z" fill="#81ab40" transform="matrix(1,0,0,1,0,0)" fill-rule="evenodd"></path><path d=" M 0.7601620240010764 2.128077387856314 C 0.7956908796709096 2.0746208426515502 0.8405800728082432 2.0297316495142166 0.9478352353511345 1.9851067848435728 C 0.8317328435407879 2.0119594473126323 0.7421410420661367 2.092393044853134 0.724120060131198 2.1550233427253818 C 0.7152728308637427 1.9582541223745131 0.8494117533423633 1.8778360735673463 1.0639531758948155 1.94045082270626 C 1.0284243202249823 2.128046290389644 0.8851427425455478 2.2087286676635007 0.7509727226002568 2.1638239257928324 C 0.7421410420661367 2.1638239257928324 0.7509727226002568 2.137235591790463 0.7601620240010764 2.1280618391229784 Z" fill="#81ab40" transform="matrix(1,0,0,1,0,0)" fill-rule="evenodd"></path><path d=" M 2.548235260027089 1.3413270298528681 C 2.5928815925677706 1.2794549435224165 2.6553276675625304 1.2326624229821757 2.727247826909709 1.2071881073742474 C 2.6197283359001275 1.2251935405758527 2.530556350225514 1.3056115893830187 2.521367048824695 1.3593480117878076 C 2.512442075890566 1.1803198961718526 2.637749317835067 1.1088423690321498 2.8341764660525715 1.1625632427036037 C 2.807665875716875 1.341373676052872 2.673526953238255 1.4128045569925707 2.539403579492969 1.3771357627227263 C 2.530556350225514 1.3771357627227263 2.539403579492969 1.350205356586992 2.548235260027089 1.341373676052872 Z" fill="#81ab40" transform="matrix(1,0,0,1,0,0)" fill-rule="evenodd"></path></g></g><defs><clipPath id="SvgjsClipPath1022"><path d=" M 0 0 h 4.595910147809572 v 5.8300286613195516 h -4.595910147809572 Z"></path></clipPath></defs></svg>